<svg width="14" height="12" viewBox="0 0 14 12" fill="none" xmlns="http://www.w3.org/2000/svg">
<path d="M12.6539 3.89894H8.95369L9.76359 1.96878C9.8794 1.69379 9.90797 1.39243 9.84575 1.1021C9.78353 0.811769 9.63326 0.54525 9.41359 0.335618C9.29005 0.217942 9.14111 0.127315 8.97714 0.0700321C8.81316 0.0127492 8.63808 -0.00981711 8.46404 0.00390002C8.28999 0.0176171 8.12117 0.0672891 7.96929 0.149466C7.8174 0.231644 7.6861 0.344357 7.5845 0.47978L5.4208 3.36634C5.09786 3.79635 4.73874 4.20058 4.347 4.57503L3.654 5.23576C3.62244 5.26581 3.59742 5.30149 3.58036 5.34078C3.56331 5.38006 3.55455 5.42217 3.5546 5.46469V10.4309C3.55455 10.517 3.59029 10.5995 3.654 10.6605L4.4303 11.404C4.62805 11.5935 4.86325 11.7438 5.1223 11.8461C5.38135 11.9484 5.65911 12.0007 5.9395 12H10.1577C10.4907 11.9997 10.8166 11.9075 11.0958 11.7345C11.3751 11.5614 11.5958 11.315 11.7313 11.0249L13.8005 6.58594C13.9329 6.30285 14.0009 5.99623 14 5.68627V5.18304C13.9996 4.8427 13.8577 4.51639 13.6054 4.27567C13.353 4.03495 13.0108 3.89947 12.6539 3.89894ZM1.2229 4.80128C0.898566 4.80128 0.587517 4.92412 0.358179 5.14278C0.128841 5.36144 0 5.65801 0 5.96725V10.3515C4.83294e-09 10.6607 0.128841 10.9573 0.358179 11.1759C0.587517 11.3946 0.898566 11.5175 1.2229 11.5175C1.54723 11.5175 1.85828 11.3946 2.08762 11.1759C2.31696 10.9573 2.4458 10.6607 2.4458 10.3515V5.96725C2.4458 5.65801 2.31696 5.36144 2.08762 5.14278C1.85828 4.92412 1.54723 4.80128 1.2229 4.80128Z" fill="#0057FF"/>
</svg>
