<svg width="44" height="42" viewBox="0 0 44 42" fill="none" xmlns="http://www.w3.org/2000/svg">
<path d="M33.7531 41.0127C35.2187 39.1723 36.0934 36.8433 36.0934 34.2985C36.0934 34.0486 36.0821 33.7986 36.0707 33.5487C35.6844 27.9251 31.0038 23.4945 25.2894 23.4945C19.575 23.4945 14.8943 27.9365 14.5081 33.5487C14.4967 33.7986 14.4854 34.0486 14.4854 34.2985C14.4854 36.832 15.3601 39.1609 16.8257 41.0127" stroke="#FF008A" stroke-width="1.2" stroke-miterlimit="10" stroke-linecap="round" stroke-linejoin="round"/>
<path d="M29.1747 41.0127C31.4809 39.6721 33.0373 37.1728 33.0373 34.2985C33.0373 34.0486 33.0259 33.7986 33.0032 33.5487C32.6283 29.6179 29.311 26.5391 25.2779 26.5391C21.2449 26.5391 17.9275 29.6179 17.5526 33.5487C17.5299 33.7986 17.5186 34.0486 17.5186 34.2985C17.5186 37.1614 19.075 39.6608 21.3812 41.0127" stroke="#FF008A" stroke-width="1.2" stroke-miterlimit="10" stroke-linecap="round" stroke-linejoin="round"/>
<path d="M15.6552 11.8041L23.1987 14.224L23.4372 14.3035C24.2211 14.5534 24.846 15.0987 25.2095 15.769C25.8003 16.6779 25.982 17.8367 25.6299 18.95C25.1186 20.5405 23.6417 21.563 22.0626 21.563C21.6877 21.563 21.3014 21.5062 20.9152 21.3812L16.1777 19.8589C15.1326 20.9495 13.6329 21.5516 12.0879 21.4494" stroke="#FF008A" stroke-width="1.2" stroke-miterlimit="10" stroke-linecap="round" stroke-linejoin="round"/>
<path d="M7.20312 16.1327C7.20312 16.2009 7.20312 16.2691 7.20312 16.3372C7.23721 18.0868 8.15743 19.7227 9.6684 20.6543" stroke="#FF008A" stroke-width="1.2" stroke-miterlimit="10" stroke-linecap="round" stroke-linejoin="round"/>
<path d="M4.10148 1.00056C5.81694 1.00056 7.20295 2.38657 7.20295 4.10204V17.0078H1V4.09068C1 2.38657 2.39737 1.00056 4.10148 1.00056Z" stroke="#FF008A" stroke-width="1.2" stroke-miterlimit="10" stroke-linecap="round" stroke-linejoin="round"/>
<path d="M20.6883 13.406L25.4144 12.6335L37.7407 18.5752C38.2747 18.8365 38.8541 18.9614 39.4335 18.9614C40.7854 18.9614 42.0919 18.2571 42.819 17.0187C43.9664 15.0533 43.2052 12.5313 41.1603 11.5315L29.277 5.70347C27.482 4.81733 25.5052 4.36291 23.5058 4.36291H7.20312" stroke="#FF008A" stroke-width="1.2" stroke-miterlimit="10" stroke-linecap="round" stroke-linejoin="round"/>
<path d="M27.4476 29.8566L23.2441 38.5703" stroke="#FF008A" stroke-width="1.2" stroke-miterlimit="10" stroke-linecap="round" stroke-linejoin="round"/>
<path d="M24.3008 31.3218C24.3008 32.3556 23.4714 33.1963 22.449 33.1963C21.4265 33.1963 20.5972 32.3556 20.5972 31.3218C20.5972 30.2879 21.4265 29.4473 22.449 29.4473C23.4714 29.4473 24.3008 30.2879 24.3008 31.3218Z" stroke="#FF008A" stroke-width="1.2" stroke-miterlimit="10" stroke-linecap="round" stroke-linejoin="round"/>
<path d="M29.9697 37.2861C29.9697 38.32 29.1404 39.1606 28.1179 39.1606C27.0954 39.1606 26.2661 38.32 26.2661 37.2861C26.2661 36.2523 27.0954 35.4116 28.1179 35.4116C29.1404 35.4116 29.9697 36.2523 29.9697 37.2861Z" stroke="#FF008A" stroke-width="1.2" stroke-miterlimit="10" stroke-linecap="round" stroke-linejoin="round"/>
<path d="M14.4968 33.5601H12.5427C10.4864 33.5601 8.81641 35.2301 8.81641 37.2864C8.81641 38.3202 9.23675 39.2518 9.90703 39.9221C10.5773 40.5923 11.5089 41.0127 12.5427 41.0127H35.5595" stroke="#FF008A" stroke-width="1.2" stroke-miterlimit="10" stroke-linecap="round" stroke-linejoin="round"/>
<path d="M36.0591 33.5601H38.0131C39.0469 33.5601 39.9785 33.9804 40.6488 34.6507C41.3191 35.321 41.7394 36.2526 41.7394 37.2864C41.7394 39.3086 40.1262 40.9559 38.1267 41.0127" stroke="#FF008A" stroke-width="1.2" stroke-miterlimit="10" stroke-linecap="round" stroke-linejoin="round"/>
<path d="M31.7422 19.4843V22.9834" stroke="#FF008A" stroke-width="1.2" stroke-miterlimit="10" stroke-linecap="round" stroke-linejoin="round"/>
<path d="M28.1182 17.2236V20.7227" stroke="#FF008A" stroke-width="1.2" stroke-miterlimit="10" stroke-linecap="round" stroke-linejoin="round"/>
<path d="M16.5073 22.8354V24.585" stroke="#FF008A" stroke-width="1.2" stroke-miterlimit="10" stroke-linecap="round" stroke-linejoin="round"/>
</svg>
