<svg width="28" height="38" viewBox="0 0 28 38" fill="none" xmlns="http://www.w3.org/2000/svg">
<path d="M27.2514 26.7659C27.9467 23.6101 28.2766 19.7282 27.1361 15.6636C25.5499 10.0118 20.2262 9.33296 20.2262 9.33296C20.0937 9.3155 19.9589 9.33396 19.836 9.38641C19.7131 9.43886 19.6065 9.52337 19.5274 9.6311C19.4483 9.73883 19.3995 9.86584 19.3863 9.99884C19.3731 10.1318 19.3958 10.266 19.4521 10.3872C19.4521 10.3872 20.636 12.934 21.2256 15.545C21.4509 16.5433 21.5917 17.5506 21.5265 18.4168C21.4896 18.9061 21.3908 19.3456 21.1762 19.6895C20.8187 20.263 20.4107 20.565 19.9819 20.6395C19.4908 20.7251 19.0062 20.523 18.6261 20.2282C18.2536 19.9388 17.9627 19.5562 17.9165 19.1944C17.6195 16.869 18.1063 15.1241 17.8033 12.8022C17.3061 8.99767 15.7712 6.38311 13.1971 3.51278C11.5576 1.68448 9.56343 0.548598 9.56343 0.548598C9.44783 0.482484 9.31663 0.448528 9.18348 0.450258C9.05032 0.451988 8.92005 0.489341 8.80621 0.558435C8.69237 0.62753 8.59911 0.725846 8.53611 0.843171C8.47311 0.960496 8.44267 1.09255 8.44796 1.22561C8.44796 1.22561 8.62492 5.72185 7.97763 8.90812C7.23901 12.5443 6.1805 14.0216 5.01131 15.4544C4.16486 16.4914 3.27113 17.5105 2.39316 19.1891C-1.27777 26.2067 1.57572 34.644 7.83757 36.6385C12.2425 38.0413 17.0464 37.6204 20.1986 35.9586C23.6984 34.1135 26.4734 30.2946 27.2514 26.7659ZM25.7939 26.4446C25.1004 29.5907 22.623 32.9934 19.5026 34.6383C16.6441 36.1453 12.2855 36.4884 8.29071 35.2161C2.80832 33.4701 0.501813 26.0248 3.71566 19.8808C4.53525 18.3136 5.37704 17.3665 6.1676 16.3979C7.45322 14.8225 8.62814 13.2034 9.44056 9.20508C9.88331 7.0243 9.96032 4.25749 9.96068 2.60436C10.5829 3.06215 11.3717 3.71302 12.0859 4.50932C14.4408 7.13499 15.8686 9.51493 16.3232 12.9953C16.6262 15.3158 16.1394 17.0595 16.436 19.3832C16.5238 20.0731 16.9998 20.8551 17.7109 21.4071C18.4144 21.9534 19.3293 22.2682 20.2381 22.1099C21.0089 21.9756 21.8002 21.5096 22.4425 20.4793C23.0292 19.5383 23.1392 18.1334 22.9372 16.6189C22.6803 14.6961 21.9535 12.5869 21.4194 11.2218C22.8121 11.7906 24.8693 13.1106 25.6989 16.0669C26.765 19.8661 26.4437 23.4951 25.7939 26.4446ZM23.8094 26.0072C23.7342 26.3493 23.7342 26.3493 23.8094 26.0072C23.9849 25.2183 24.1212 24.4211 24.2178 23.6187C24.2355 23.4689 24.2075 23.3172 24.1373 23.1837C24.0671 23.0502 23.9581 22.9411 23.8247 22.8708C23.6912 22.8004 23.5396 22.7722 23.3898 22.7898C23.24 22.8074 23.099 22.8699 22.9855 22.9693C22.3079 23.5659 21.4772 23.9615 20.5869 24.1116C19.109 24.3695 17.6092 23.9002 16.465 23.0122C15.293 22.1024 14.5655 20.7777 14.4204 19.6408C14.1241 17.3189 14.6113 15.5765 14.3083 13.2586C14.0926 11.6051 13.6119 10.241 12.8908 8.9726C12.815 8.839 12.6997 8.73208 12.5608 8.66644C12.4219 8.6008 12.2661 8.57965 12.1147 8.60587C11.9633 8.63208 11.8237 8.7044 11.7149 8.81292C11.6062 8.92145 11.5336 9.06091 11.5071 9.21224C11.4834 9.34693 11.458 9.47911 11.4315 9.60949C10.5191 14.1007 9.18587 15.9133 7.74157 17.6828C7.02731 18.5579 6.2568 19.4065 5.51602 20.8225C3.98468 23.7502 3.88975 27.0955 4.98516 29.6022C5.74922 31.3506 7.08462 32.6996 8.90719 33.2803C12.3435 34.3746 16.0961 34.1371 18.5552 32.8408C21.159 31.4681 23.2309 28.6325 23.8094 26.0072ZM22.4794 25.0698L22.3518 25.6863C21.8575 27.9287 20.0833 30.348 17.8588 31.5204C15.6935 32.6624 12.3865 32.8218 9.35996 31.8578C7.95507 31.4104 6.94205 30.3527 6.3528 29.0044C5.41787 26.8655 5.53178 24.0127 6.83853 21.5146C7.52128 20.2093 8.23984 19.433 8.89787 18.6267C10.2458 16.9753 11.5106 15.2921 12.466 11.7376C12.6272 12.2724 12.7486 12.8395 12.8285 13.4516C13.1308 15.7685 12.6437 17.5094 12.9399 19.8296C13.1269 21.2953 14.0389 23.0183 15.5498 24.1911C17.0178 25.3306 18.9471 25.9127 20.8434 25.582C21.4092 25.4851 21.9594 25.3128 22.4794 25.0698Z" fill="#FF008A"/>
</svg>
