<svg width="44" height="44" viewBox="0 0 44 44" fill="none" xmlns="http://www.w3.org/2000/svg">
<path d="M20.2856 7.45861V2.71432C20.2856 1.7671 21.0528 1 22 1C22.4731 1 22.9017 1.19199 23.212 1.50229C23.5223 1.8126 23.7143 2.24113 23.7143 2.71432V7.45861" stroke="#FF008A" stroke-width="1.4" stroke-miterlimit="10" stroke-linecap="round" stroke-linejoin="round"/>
<path d="M25.3847 10.9775C25.6881 9.10841 24.4188 7.3473 22.5497 7.04394C20.6806 6.74058 18.9195 8.00984 18.6162 9.87892C18.3128 11.748 19.5821 13.5091 21.4512 13.8125C23.3202 14.1158 25.0813 12.8466 25.3847 10.9775Z" stroke="#FF008A" stroke-width="1.4" stroke-miterlimit="10" stroke-linecap="round" stroke-linejoin="round"/>
<path d="M40.4286 10.4287H25.4285M18.5715 10.4287H3.57139M20.2865 13.3987H20.2857V34.5907C18.0674 35.1616 16.4285 37.175 16.4285 39.5716H13.8571C12.4368 39.5716 11.2857 40.7227 11.2857 42.143V43.0001H32.7143V42.143C32.7143 40.7227 31.5631 39.5716 30.1429 39.5716H27.5715C27.5715 37.175 25.9326 35.1616 23.7143 34.5907V13.3987H23.7135M13 22.4287H3.57139L8.28572 10.4287L13 22.4287ZM8.31534 30.143H8.2561C4.24868 30.143 1 26.8943 1 22.8869V22.4287H15.5714V22.8869C15.5714 26.8943 12.3228 30.143 8.31534 30.143ZM40.4286 22.4287H31L35.7143 10.4287L40.4286 22.4287ZM35.7439 30.143H35.6847C31.6772 30.143 28.4286 26.8943 28.4286 22.8869V22.4287H43V22.8868C43 26.8943 39.7513 30.143 35.7439 30.143Z" stroke="#FF008A" stroke-width="1.4" stroke-miterlimit="10" stroke-linecap="round" stroke-linejoin="round"/>
</svg>
