<svg width="15" height="14" viewBox="0 0 15 14" fill="none" xmlns="http://www.w3.org/2000/svg">
<path d="M7.5 12.6C6.01479 12.6 4.59041 12.01 3.5402 10.9598C2.49 9.90959 1.9 8.48521 1.9 7C1.9 5.51479 2.49 4.09041 3.5402 3.0402C4.59041 1.99 6.01479 1.4 7.5 1.4C8.98521 1.4 10.4096 1.99 11.4598 3.0402C12.51 4.09041 13.1 5.51479 13.1 7C13.1 8.48521 12.51 9.90959 11.4598 10.9598C10.4096 12.01 8.98521 12.6 7.5 12.6ZM7.5 0C6.58075 0 5.67049 0.18106 4.82122 0.532843C3.97194 0.884626 3.20026 1.40024 2.55025 2.05025C1.2375 3.36301 0.5 5.14348 0.5 7C0.5 8.85651 1.2375 10.637 2.55025 11.9497C3.20026 12.5998 3.97194 13.1154 4.82122 13.4672C5.67049 13.8189 6.58075 14 7.5 14C9.35651 14 11.137 13.2625 12.4497 11.9497C13.7625 10.637 14.5 8.85651 14.5 7C14.5 6.08075 14.3189 5.17049 13.9672 4.32122C13.6154 3.47194 13.0998 2.70026 12.4497 2.05025C11.7997 1.40024 11.0281 0.884626 10.1788 0.532843C9.3295 0.18106 8.41925 0 7.5 0ZM10.468 4.032C9.649 3.206 8.571 2.8 7.5 2.8V7L4.532 9.968C6.17 11.606 8.83 11.606 10.468 9.968C12.113 8.33 12.113 5.67 10.468 4.032Z" fill="#7B8CAC"/>
</svg>
