<svg width="20" height="18" viewBox="0 0 20 18" fill="none" xmlns="http://www.w3.org/2000/svg">
<path d="M15.625 18H4.375C1.95875 18 0 16.2371 0 14.0625V3.9375C0 1.76288 1.95875 0 4.375 0H15.625C18.0413 0 20 1.76288 20 3.9375V14.0625C20 16.2371 18.0413 18 15.625 18Z" fill="#41479B"/>
<path d="M20.0002 14.062V13.1976L16.8979 11.3683H20.0002V10.4209H11.5791V17.9998H12.6317V12.2504L19.3088 16.1875C19.5452 15.8562 19.7278 15.4907 19.8459 15.1014" fill="#F5F5F5"/>
<path d="M0.29418 15.4842C0.400742 15.7317 0.534102 15.9671 0.691367 16.1875L7.3684 12.2504V17.9998H8.42102V10.4209H0V11.3683H3.1023L0 13.1976V14.0623C0 14.2137 0.00984375 14.363 0.0283203 14.51" fill="#F5F5F5"/>
<path d="M0 4.07134V4.80227L3.1023 6.63159H0V7.57895H8.42105V0H7.36844V5.74945L0.691367 1.8123C0.431875 2.17593 0.237227 2.58054 0.121641 3.01289" fill="#F5F5F5"/>
<path d="M19.7002 2.50204C19.5947 2.25949 19.4632 2.02862 19.3088 1.81227L12.6317 5.74945V0H11.5791V7.57895H20.0002V6.63159H16.8979L20.0002 4.80227V3.9375C20.0002 3.7807 19.9896 3.62609 19.9698 3.47407" fill="#F5F5F5"/>
<path d="M11.5789 0H8.42105V7.57895H0V10.4211H8.42105V18H11.5789V10.4211H20V7.57895H11.5789V0Z" fill="#FF4B55"/>
<path d="M5.40605 11.3682L0.0283203 14.5099C0.0710547 14.8496 0.16168 15.1762 0.294219 15.4841L7.33949 11.3682H5.40605V11.3682Z" fill="#FF4B55"/>
<path d="M13.4556 11.3682L19.8456 15.1013C19.946 14.7702 19.9999 14.4219 19.9999 14.0623V14.0619L15.389 11.3682L13.4556 11.3682Z" fill="#FF4B55"/>
<path d="M6.31578 6.6314L0.121641 3.0127C0.0423047 3.30927 0 3.61882 0 3.9373V4.07114L4.38234 6.6314H6.31578Z" fill="#FF4B55"/>
<path d="M14.5647 6.63148L19.9694 3.47395C19.9253 3.13491 19.8335 2.80901 19.6998 2.50195L12.6313 6.63148H14.5647Z" fill="#FF4B55"/>
</svg>
