<svg width="145" height="25" viewBox="0 0 145 25" fill="none" xmlns="http://www.w3.org/2000/svg">
<g clip-path="url(#clip0_1_1803)">
<path d="M4.7915 0.0012207V2.88255H8.88064H8.97126H20.7629V0.0012207H4.7915Z" fill="white"/>
<path d="M8.88064 4.45044H4.7915V8.62339C4.7915 9.36304 5.08601 9.9371 5.67503 10.3676C6.26405 10.7982 7.07961 11.019 8.13304 11.019H20.7629V8.13765H8.88064V4.45044Z" fill="white"/>
<path d="M39.7476 2.88255V0.0012207H24.9769C24.739 0.0012207 24.4898 0.0564185 24.2406 0.166814C23.9801 0.27721 23.7422 0.420724 23.527 0.586317C23.3118 0.76295 23.1305 0.950623 22.9833 1.14933C22.836 1.34805 22.7681 1.53572 22.7681 1.72339V2.88255H39.7476Z" fill="white"/>
<path d="M22.7681 4.44976V4.68159C22.7681 5.10109 22.8474 5.4654 23.0059 5.75243C23.1645 6.03946 23.3797 6.28233 23.6403 6.45896C23.9008 6.63559 24.2066 6.76807 24.5351 6.84534C24.8636 6.92262 25.2148 6.95574 25.5772 6.95574H35.6585V8.11489H22.7681V11.0183H37.5275C37.7767 11.0183 38.0372 10.9631 38.2864 10.8527C38.5469 10.7423 38.7848 10.6098 39 10.4332C39.2152 10.2676 39.3965 10.0799 39.5324 9.88122C39.6683 9.68251 39.7363 9.49484 39.7363 9.30717V7.15445V6.31545C39.7363 5.27773 38.8754 4.43872 37.8106 4.43872L22.7681 4.44976Z" fill="white"/>
<path d="M55.4696 7.36488V8.11557H45.9887V4.45044H41.877V11.019H59.5361V4.48356H52.7511L55.4696 7.36488Z" fill="white"/>
<path d="M55.4584 2.88255H59.5362V0.0012207H44.8788C44.3011 0.0012207 43.8253 0.0564185 43.4176 0.177854C43.0664 0.27721 42.7832 0.420724 42.568 0.619436C42.4547 0.718792 42.3528 0.829188 42.2622 0.950623C42.0696 1.21557 41.945 1.51364 41.8997 1.85587C41.877 1.9773 41.8657 2.09874 41.8657 2.22017V2.88255H55.4584Z" fill="white"/>
<path d="M79.2228 2.88255V2.22017C79.2228 1.5578 78.985 1.0279 78.5206 0.619436C78.0561 0.210972 77.2746 0.0012207 76.1985 0.0012207H64.5654C63.478 0.0012207 62.7077 0.210972 62.2433 0.619436C61.7789 1.0279 61.541 1.56884 61.541 2.22017V2.88255H75.1337H79.2228Z" fill="white"/>
<path d="M75.1337 4.45044V8.14869H65.6302V4.45044H61.541V8.62339C61.541 9.36304 61.8355 9.9371 62.4245 10.3676C63.0136 10.7982 63.8291 11.019 64.8826 11.019H75.8813C76.9234 11.019 77.739 10.7982 78.3393 10.3676C78.9283 9.9371 79.2228 9.352 79.2228 8.62339V4.45044H75.1337Z" fill="white"/>
<path d="M20.7629 21.1198V24.0011H8.13304C7.09093 24.0011 6.27537 23.7914 5.67503 23.3498C5.08601 22.9192 4.7915 22.3341 4.7915 21.6055V12.9836H20.7629V15.865H8.88064V21.1198H20.7629Z" fill="white"/>
<path d="M33.71 12.9836H27.0269L28.9072 14.9928L27.6725 16.7481L26.5625 18.2164H26.5398L26.0867 18.8346L22.3374 24.0011H26.9136L29.1224 21.0977H34.922L37.0968 24.0011H41.6843L33.71 12.9836ZM30.8668 18.2164L31.8636 16.7481L32.9057 18.2164H30.8668Z" fill="white"/>
<path d="M39.3284 15.865L36.6099 12.9836H55.8209V15.865H49.3077V24.0011H45.2186V15.865H39.3284Z" fill="white"/>
<path d="M64.4858 12.9836H57.8028L59.6831 14.9928L58.4484 16.7481L57.3383 18.2164H57.3157L56.8626 18.8346L53.1133 24.0011H57.6895L59.8983 21.0977H65.6978L67.8727 24.0011H72.4602L64.4858 12.9836ZM61.6427 18.2164L62.6395 16.7481L63.6816 18.2164H61.6427Z" fill="white"/>
<path d="M73.7517 24.0011V15.865L71.0332 12.9836H77.8182V21.1198H88.0127V24.0011H73.7517Z" fill="white"/>
<path d="M106.997 13.6019C107.462 14.0103 107.699 14.5513 107.699 15.2026V21.6055C107.699 22.3452 107.405 22.9192 106.816 23.3498C106.227 23.7803 105.411 24.0011 104.358 24.0011H93.3591C92.317 24.0011 91.5014 23.7914 90.9011 23.3498C90.3121 22.9192 90.0176 22.3341 90.0176 21.6055V17.4326H94.1067V21.1198H103.61V15.865H90.0176V15.2026C90.0176 14.5402 90.2555 14.0103 90.7199 13.6019C91.1843 13.1934 91.9659 12.9836 93.0533 12.9836H104.686C105.762 12.9836 106.533 13.1824 106.997 13.6019Z" fill="white"/>
<path d="M120.59 17.4657L123.297 20.347V21.1088H113.816V15.865H123.286L120.578 12.9947L112.706 12.9836C111.63 12.9836 110.871 13.1934 110.395 13.6019C109.931 14.0103 109.693 14.5513 109.693 15.2026V24.0011H127.352V17.4657H120.59Z" fill="white"/>
<path d="M141.908 11.6476C141.285 10.2124 142.27 9.6494 143.12 9.43965C144.615 9.07535 144.751 8.53441 144.66 8.03763C144.558 7.54085 144.037 5.31086 143.901 4.67056C143.765 4.03027 143.879 3.85363 144.015 3.21334C144.151 2.57305 143.754 2.42953 143.199 2.42953C143.063 1.93275 142.871 1.41389 142.565 1.41389H115.277V0.96127C115.277 0.839835 115.175 0.740479 115.051 0.740479H112.978C112.853 0.740479 112.751 0.839835 112.751 0.96127V1.41389H112.729C112.412 1.41389 112.162 1.65676 112.162 1.96587V2.48473H111.902V2.26394C111.902 2.09834 111.766 1.95483 111.585 1.95483H110.735V1.75612C110.735 1.3035 110.35 0.928151 109.886 0.928151H82.5756C82.1112 0.928151 81.7261 1.3035 81.7261 1.75612V5.55373C81.7261 6.00635 82.1112 6.38169 82.5756 6.38169H109.886C110.35 6.38169 110.735 6.00635 110.735 5.55373V5.35501H111.585C111.755 5.35501 111.902 5.22254 111.902 5.04591V4.82512H112.162V8.55649H121.836C122.266 9.41757 123.965 12.7736 124.181 13.1489C124.43 13.5905 124.838 13.8665 125.857 13.8665C126.741 13.8665 132.438 13.8665 133.945 13.8665C134.84 17.7524 135.848 21.9585 135.972 22.4553C136.187 23.3605 135.655 23.3053 135.655 23.5703C135.655 23.8352 135.904 23.9898 136.267 23.9898H144.366C144.717 23.9898 145.011 23.7028 145 23.3605C144.887 16.24 142.519 13.0496 141.908 11.6476ZM129.448 13.3918C125.653 13.3918 125.268 13.4249 124.838 12.5197C124.407 11.6144 123.818 9.96955 123.727 9.48381C123.626 8.99807 123.795 8.56753 124.962 8.56753H128.088C128.995 9.10846 129.459 10.1131 129.255 11.0404C129.131 11.5924 128.779 12.0671 128.281 12.3872C128.134 12.4866 128.236 12.6963 128.406 12.6522C129.017 12.4866 129.742 12.0671 129.946 10.9741C130.15 9.83708 129.788 9.03119 129.436 8.55649H130.048C130.513 8.56753 132.733 8.68896 133.084 10.4774C133.299 11.6696 133.254 13.3918 129.448 13.3918Z" fill="#0057FF"/>
<path d="M2.76385 2.88208C2.50332 2.88208 0.98547 2.98144 0 3.66589C0.98547 4.35034 2.51465 4.4497 2.76385 4.4497H6.85298V2.88208H2.76385Z" fill="#0057FF"/>
</g>
<defs>
<clipPath id="clip0_1_1803">
<rect width="145" height="24" fill="white" transform="translate(0 0.0012207)"/>
</clipPath>
</defs>
</svg>
