<svg width="14" height="12" viewBox="0 0 14 12" fill="none" xmlns="http://www.w3.org/2000/svg">
<path d="M1.34611 8.10106L5.04631 8.10106L4.23641 10.0312C4.1206 10.3062 4.09203 10.6076 4.15425 10.8979C4.21647 11.1882 4.36674 11.4547 4.58641 11.6644C4.70995 11.7821 4.85889 11.8727 5.02286 11.93C5.18684 11.9873 5.36192 12.0098 5.53596 11.9961C5.71001 11.9824 5.87883 11.9327 6.03071 11.8505C6.1826 11.7684 6.3139 11.6556 6.4155 11.5202L8.5792 8.63366C8.90214 8.20365 9.26126 7.79942 9.653 7.42497L10.346 6.76424C10.3776 6.73419 10.4026 6.69851 10.4196 6.65922C10.4367 6.61994 10.4455 6.57783 10.4454 6.53531L10.4454 1.56909C10.4455 1.48303 10.4097 1.40047 10.346 1.3395L9.5697 0.596006C9.37195 0.406481 9.13675 0.256223 8.8777 0.153922C8.61865 0.05162 8.34089 -0.000693816 8.06051 7.11015e-06L3.84231 6.74138e-06C3.50926 0.00026039 3.18342 0.0924816 2.90416 0.265522C2.62491 0.438563 2.4042 0.685018 2.26871 0.975097L0.199509 5.41406C0.0671154 5.69715 -0.00087781 6.00377 9.08018e-06 6.31373L9.03618e-06 6.81696C0.000379032 7.1573 0.142296 7.48361 0.394638 7.72433C0.646981 7.96505 0.98915 8.10053 1.34611 8.10106ZM12.7771 7.19872C13.1014 7.19872 13.4125 7.07588 13.6418 6.85722C13.8712 6.63856 14 6.34199 14 6.03275L14 1.64852C14 1.33928 13.8712 1.04271 13.6418 0.824051C13.4125 0.60539 13.1014 0.482547 12.7771 0.482547C12.4528 0.482547 12.1417 0.605389 11.9124 0.824051C11.683 1.04271 11.5542 1.33928 11.5542 1.64852L11.5542 6.03275C11.5542 6.34199 11.683 6.63856 11.9124 6.85722C12.1417 7.07588 12.4528 7.19872 12.7771 7.19872Z" fill="#FF008A"/>
</svg>
